<?xml version="1.0" standalone="no"?>
<!DOCTYPE svg PUBLIC "-//W3C//DTD SVG 20010904//EN"
 "http://www.w3.org/TR/2001/REC-SVG-20010904/DTD/svg10.dtd">
<svg version="1.0" xmlns="http://www.w3.org/2000/svg"
 width="196.000000pt" height="196.000000pt" viewBox="0 0 196.000000 196.000000"
 preserveAspectRatio="xMidYMid meet">

<g transform="translate(0.000000,196.000000) scale(0.100000,-0.100000)"
fill="#ea5252" stroke="none">
<path d="M646 1639 c-14 -11 -50 -69 -80 -128 -92 -187 -216 -351 -335 -444
-71 -56 -78 -82 -32 -128 39 -39 105 -40 174 -4 55 30 54 33 26 -95 -27 -121
-29 -273 -6 -352 42 -142 164 -223 296 -198 82 15 142 50 217 124 92 91 184
233 281 432 l78 159 7 -121 c10 -193 50 -288 140 -336 35 -19 58 -23 128 -23
73 1 93 5 140 29 100 50 167 134 176 222 5 48 -9 94 -31 100 -5 2 -35 -19 -65
-47 -72 -65 -133 -95 -169 -83 -45 16 -52 49 -62 287 -12 284 -15 314 -42 362
-26 46 -57 65 -111 65 -54 0 -71 -22 -188 -250 -181 -353 -310 -565 -386 -631
-70 -62 -122 -14 -122 112 0 107 29 251 120 594 23 87 32 143 33 205 1 89 -9
122 -47 152 -31 25 -106 24 -140 -3z"/>
</g>
</svg>
